<svg width="512" height="512" viewBox="0 0 512 512" fill="none" xmlns="http://www.w3.org/2000/svg">
<g clip-path="url(#clip0_1_2)">
<path d="M48.224 97.208C55.0507 90.3813 63.584 86.968 73.824 86.968H178.784C188.683 86.968 197.045 90.552 203.872 97.72L220.256 114.104C227.083 120.931 230.496 129.293 230.496 139.192V404.408C230.496 409.528 229.643 414.136 227.936 418.232C226.229 421.987 223.499 425.741 219.744 429.496L203.36 445.88C196.533 452.707 188.171 456.12 178.272 456.12H73.312C63.4133 456.12 55.0507 452.707 48.224 445.88L31.84 429.496C25.0133 422.669 21.6 414.307 21.6 404.408V138.68C21.6 128.781 25.0133 120.419 31.84 113.592L48.224 97.208ZM163.424 410.04C177.077 410.04 183.904 403.213 183.904 389.56V154.04C183.904 140.387 177.077 133.56 163.424 133.56H88.672C75.0187 133.56 68.192 140.387 68.192 154.04V389.56C68.192 403.213 75.0187 410.04 88.672 410.04H163.424ZM490.496 112.056C490.496 125.709 483.669 132.536 470.016 132.536H348.16C334.507 132.536 327.68 139.363 327.68 153.016V206.264C327.68 219.917 334.507 226.744 348.16 226.744H438.272C448.512 226.744 457.045 230.157 463.872 236.984L480.256 253.368C487.083 260.195 490.496 268.557 490.496 278.456V403.896C490.496 409.016 489.643 413.624 487.936 417.72C486.229 421.475 483.499 425.229 479.744 428.984L463.36 445.368C456.533 452.195 448.171 455.608 438.272 455.608H333.312C323.413 455.608 315.051 452.195 308.224 445.368L291.84 428.984C285.013 422.157 281.6 413.795 281.6 403.896V137.656C281.6 127.757 285.013 119.395 291.84 112.568L308.224 96.184C315.051 89.3573 323.413 85.944 333.312 85.944H470.016C483.669 85.944 490.496 92.7706 490.496 106.424V112.056ZM443.904 293.816C443.904 280.163 437.077 273.336 423.424 273.336H348.16C334.507 273.336 327.68 280.163 327.68 293.816V388.536C327.68 402.189 334.507 409.016 348.16 409.016H423.424C437.077 409.016 443.904 402.189 443.904 388.536V293.816Z" fill="#2C2C2C"/>
</g>
<defs>
<clipPath id="clip0_1_2">
<rect width="512" height="512" fill="white"/>
</clipPath>
</defs>
</svg>
